<?xml version="1.0" encoding="UTF-8" standalone="no"?>
<svg
   xmlns:dc="http://purl.org/dc/elements/1.1/"
   xmlns:cc="http://creativecommons.org/ns#"
   xmlns:rdf="http://www.w3.org/1999/02/22-rdf-syntax-ns#"
   xmlns:svg="http://www.w3.org/2000/svg"
   xmlns="http://www.w3.org/2000/svg"
   xmlns:sodipodi="http://sodipodi.sourceforge.net/DTD/sodipodi-0.dtd"
   xmlns:inkscape="http://www.inkscape.org/namespaces/inkscape"
   version="1.1"
   id="svg833"
   width="266.66666"
   height="202.66667"
   viewBox="0 0 266.66666 202.66667"
   sodipodi:docname="Btrfs_logo.svg"
   inkscape:version="1.0.1 (3bc2e813f5, 2020-09-07)">
  <metadata
     id="metadata839">
    <rdf:RDF>
      <cc:Work
         rdf:about="">
        <dc:format>image/svg+xml</dc:format>
        <dc:type
           rdf:resource="http://purl.org/dc/dcmitype/StillImage" />
        <dc:title></dc:title>
      </cc:Work>
    </rdf:RDF>
  </metadata>
  <defs
     id="defs837" />
  <sodipodi:namedview
     pagecolor="#ffffff"
     bordercolor="#666666"
     borderopacity="1"
     objecttolerance="10"
     gridtolerance="10"
     guidetolerance="10"
     inkscape:pageopacity="0"
     inkscape:pageshadow="2"
     inkscape:window-width="1920"
     inkscape:window-height="1057"
     id="namedview835"
     showgrid="false"
     inkscape:zoom="3.2700001"
     inkscape:cx="133.33333"
     inkscape:cy="101.33334"
     inkscape:window-x="-8"
     inkscape:window-y="-8"
     inkscape:window-maximized="1"
     inkscape:current-layer="g841" />
  <g
     inkscape:groupmode="layer"
     inkscape:label="Image"
     id="g841">
    <path
       style="fill:#000000;stroke-width:1.06667"
       d="m 176.41671,200.58314 c -5.32533,-1.95882 -6.35432,-5.63991 -6.35432,-22.73181 v -15.56876 h -29.41538 -29.41539 l -3.11795,-3.11795 -3.11796,-3.11794 v -15.49853 c 0,-8.62447 0.50042,-16.59681 1.12826,-17.97476 0.85897,-1.88524 0.73325,-3.23375 -0.52677,-5.6502 -1.48881,-2.85521 -1.65567,-2.93294 -1.66158,-0.77395 -0.006,2.13236 -0.54185,2.4 -4.806571,2.4 h -4.8 v 19.2 19.2 h -8.056722 -8.056723 l 0.32339,-24.08943 0.323388,-24.08943 3.483496,-3.11057 c 3.300324,-2.94701 3.987399,-3.11057 13.066666,-3.11057 h 9.583166 v -9.148722 c 0,-8.68952 0.1565,-9.30522 3.11796,-12.26667 l 3.11795,-3.11795 h 29.68206 29.68204 l 0.14476,-17.06666 c 0.0797,-9.38667 0.15838,-17.90667 0.17501,-18.93334 0.0166,-1.02666 -0.2026,-9.066662 -0.48719,-17.866662 -0.76117,-23.53632481 0.48271,-25.07002381 20.32659,-25.06267981 11.91018,0.0044 17.07054,1.886762 18.26961,6.66424001 0.34065,1.357254 0.39477,9.6521428 0.12028,18.4330878 -0.60081,19.220004 -0.60083,15.666364 2e-4,35.664364 0.76565,25.47526 2.12748,24.56765 -36.86284,24.56765 h -27.71543 l -0.50958,16.800012 c -0.28027,9.24 -0.50958,17.76 -0.50958,18.93333 0,1.17333 0.22931,9.69333 0.50958,18.93333 l 0.50958,16.8 h 12.74784 12.74784 V 139.8994 123.91623 l 3.1112,-3.48349 c 3.04776,-3.41247 3.32108,-3.49109 13.40436,-3.85555 5.66124,-0.20463 11.99483,-0.0528 14.07465,0.33735 5.40138,1.01331 8.87645,4.86139 8.87645,9.82925 v 4.02485 l 3.27766,-3.97637 3.27766,-3.97636 h 10.05567 10.05568 v 8 8 h -4.8 c -2.64,0 -4.8,0.48 -4.8,1.06666 0,0.58667 2.16,1.06667 4.8,1.06667 4.77871,0 4.8,0.0166 4.8,3.75016 v 3.75016 l 3.10997,-3.48349 3.10998,-3.4835 12.89002,-0.356 12.89003,-0.356 v 8.08934 8.08933 h -6.4 c -3.52,0 -6.39595,0.36 -6.391,0.8 0.005,0.44 2.8809,5.6 6.391,11.46667 6.52438,10.90466 7.49797,14.57323 5.35993,20.19673 -2.01142,5.29041 -6.75835,6.99485 -19.49326,6.99928 l -11.46667,0.004 v -8 -8 h 6.4 c 3.52,0 6.4,-0.2832 6.4,-0.62934 0,-0.34614 -2.99623,-5.62614 -6.6583,-11.73333 l -6.65831,-11.104 h -4.54169 -4.5417 v 19.73332 19.73334 h -8 c -7.57281,0 -8.00223,-0.12816 -8.04175,-2.4 -0.0348,-2.00091 -0.29509,-1.8169 -1.5653,1.10659 -2.21295,5.09333 -6.81784,6.64428 -19.42535,6.54253 -5.73885,-0.0463 -11.65482,-0.53317 -13.14661,-1.08189 z m 25.43234,-6.5139 c 0.87093,-0.87092 1.28,-5.94797 1.28,-15.88588 0,-12.33466 -0.26236,-14.70656 -1.68724,-15.25333 -3.18072,-1.22057 -22.35817,-0.70871 -23.69942,0.63254 -0.86528,0.86528 -1.28,5.80741 -1.28,15.25334 0,9.44593 0.41472,14.38805 1.28,15.25333 0.82658,0.82658 5.0963,1.28 12.05333,1.28 6.95704,0 11.22675,-0.45342 12.05333,-1.28 z m 8.70492,-35.25333 c -0.0415,-6.63328 -0.0492,-6.64956 -1.52681,-3.25159 -1.16942,2.68921 -1.22421,4.1062 -0.25773,6.66667 0.67503,1.78837 1.3621,3.25158 1.52681,3.25158 0.16472,0 0.2807,-3 0.25773,-6.66666 z m -73.02491,-18.93334 v -15.46666 h -12.8 -12.8 l -0.29911,14.34618 c -0.16451,7.8904 -0.0537,14.98572 0.24624,15.76736 0.42088,1.09677 3.41101,1.35254 13.09912,1.12048 l 12.55375,-0.30069 z m 65.36421,0.67984 c 0.20111,-9.99415 -0.10048,-15.26647 -0.9306,-16.26666 -1.49166,-1.79734 -20.21975,-2.09751 -23.43707,-0.37565 -1.88772,1.01028 -2.06321,2.36363 -2.06321,15.91111 0,10.83838 0.35735,14.95569 1.33333,15.362 0.73334,0.3053 6.61334,0.4653 13.06667,0.35556 l 11.73333,-0.19953 z m -65.36421,-40.1465 V 84.949238 h -12.8 -12.8 l -0.29911,14.34618 c -0.16451,7.890412 -0.0537,14.985722 0.24624,15.767372 0.42088,1.09676 3.41101,1.35253 13.09912,1.12048 l 12.55375,-0.3007 z m 64.43361,-23.879852 c 0.83009,-1.00019 1.13171,-6.27251 0.9306,-16.26666 l -0.29755,-14.78683 -10.66666,-0.31184 c -16.69881,-0.48818 -15.46667,-1.74256 -15.46667,15.74583 0,13.02709 0.23024,14.99411 1.86667,15.94724 2.95715,1.72238 22.15308,1.45618 23.63361,-0.32774 z m 0.9306,-53.306983 c 0.20111,-9.994151 -0.10051,-15.2664698 -0.9306,-16.2666668 -1.61147,-1.941695 -22.30766,-2.112458 -24.22028,-0.199839 -1.80354,1.803544 -1.77477,28.7318988 0.0326,30.5392988 0.91951,0.9195 4.83297,1.223 13.06667,1.01333 l 11.75402,-0.2993 z M 1.5290519,125.10841 c 0,-19.06525 0.4401965,-33.103582 1.0971107,-34.988012 1.3654118,-3.91682 6.030837,-6.77116 11.0674674,-6.77116 h 3.835421 v 9.6 9.600002 h 13.333333 13.333333 v 24.08205 24.08206 l -3.117949,3.11794 -3.117949,3.11795 H 19.744435 1.5290519 Z m 26.6666651,4.64083 v -11.2 h -5.333333 -5.333333 v 11.2 11.2 h 5.333333 5.333333 z m 25.599999,8 v -19.2 H 49.52905 45.262383 v -8 -8 h 4.266667 4.266666 v -6.482062 c 0,-5.74215 0.355902,-6.83795 3.117949,-9.6 2.537844,-2.53784 4.026271,-3.11794 8,-3.11794 h 4.882051 v 9.6 9.600002 h 3.733333 3.733333 v 8 8 h -3.733333 -3.733333 v 19.2 19.2 h -8 -8 z"
       id="path845"
       inkscape:export-xdpi="96"
       inkscape:export-ydpi="96" />
  </g>
</svg>
