<?xml version="1.0" encoding="UTF-8" standalone="no"?>
<svg
   xmlns:dc="http://purl.org/dc/elements/1.1/"
   xmlns:cc="http://creativecommons.org/ns#"
   xmlns:rdf="http://www.w3.org/1999/02/22-rdf-syntax-ns#"
   xmlns:svg="http://www.w3.org/2000/svg"
   xmlns="http://www.w3.org/2000/svg"
   xmlns:sodipodi="http://sodipodi.sourceforge.net/DTD/sodipodi-0.dtd"
   xmlns:inkscape="http://www.inkscape.org/namespaces/inkscape"
   version="1.1"
   id="svg833"
   width="800"
   height="485.33334"
   viewBox="0 0 800 485.33334"
   sodipodi:docname="Gnome-logo.svg"
   inkscape:version="1.0.1 (3bc2e813f5, 2020-09-07)">
  <metadata
     id="metadata839">
    <rdf:RDF>
      <cc:Work
         rdf:about="">
        <dc:format>image/svg+xml</dc:format>
        <dc:type
           rdf:resource="http://purl.org/dc/dcmitype/StillImage" />
        <dc:title></dc:title>
      </cc:Work>
    </rdf:RDF>
  </metadata>
  <defs
     id="defs837" />
  <sodipodi:namedview
     pagecolor="#ffffff"
     bordercolor="#666666"
     borderopacity="1"
     objecttolerance="10"
     gridtolerance="10"
     guidetolerance="10"
     inkscape:pageopacity="0"
     inkscape:pageshadow="2"
     inkscape:window-width="1920"
     inkscape:window-height="1057"
     id="namedview835"
     showgrid="false"
     inkscape:zoom="0.77074639"
     inkscape:cx="388.03177"
     inkscape:cy="307.69169"
     inkscape:window-x="-8"
     inkscape:window-y="-8"
     inkscape:window-maximized="1"
     inkscape:current-layer="g841" />
  <g
     inkscape:groupmode="layer"
     inkscape:label="Image"
     id="g841">
    <path
       style="fill:#000000;stroke-width:1.33333"
       d="m 246.25949,463.6179 c -8.17893,-3.07245 -12.86301,-7.3348 -16.71681,-15.21169 -3.19107,-6.52229 -3.69323,-9.1374 -3.64227,-18.96783 0.0851,-16.41437 5.27782,-26.33773 16.8791,-32.25628 8.28568,-4.22702 32.05684,-3.18756 34.972,1.52927 0.65692,1.06291 -1.82228,11.99119 -2.72032,11.99119 -0.16104,0 -2.44679,-0.9 -5.07947,-2 -10.83957,-4.52907 -22.25551,-1.10638 -26.34551,7.89885 -1.35753,2.98896 -2.47808,8.43448 -2.49009,12.10115 -0.0509,15.54197 5.78811,23.33333 17.48657,23.33333 9.71567,0 11.81004,-1.54525 11.81004,-8.71357 v -5.9531 h -6 -6 v -6 -6 h 11.37318 11.37316 l -0.37316,16.92774 -0.37318,16.92773 -4.33982,2.53213 c -5.6935,3.32194 -23.04175,4.4049 -29.81342,1.86108 z m 125.7211,0.31318 c -2.43768,-0.74579 -6.94979,-3.8773 -10.0269,-6.95892 -15.3586,-15.38112 -12.14528,-49.61539 5.5758,-59.40378 9.9289,-5.4843 25.05384,-4.22794 32.99031,2.74036 7.14492,6.27334 10.23757,13.43394 10.94937,25.35175 1.4371,24.06153 -8.33449,37.90857 -27.62658,39.14889 -4.08642,0.26272 -9.42432,-0.13253 -11.862,-0.8783 z m 18.0331,-14.89519 c 5.02446,-5.5164 6.28498,-9.46624 6.27623,-19.66667 -0.009,-10.82172 -2.21892,-16.88701 -7.49957,-20.58573 -6.35427,-4.45069 -14.42852,-1.57201 -18.35794,6.54509 -5.14788,10.6341 -2.33704,31.01654 4.85376,35.19635 4.36807,2.53904 11.7373,1.79396 14.72752,-1.48904 z m -98.26762,-19.66667 v -34.66666 h 4.44505 c 4.20019,0 5.24685,1.11068 19,20.16188 l 14.55495,20.16189 0.66666,-19.82856 0.66667,-19.82855 6.33333,-0.40638 6.33334,-0.40639 v 34.8202 34.82021 l -4.94247,-0.41381 c -4.70872,-0.39425 -5.60729,-1.34179 -19,-20.03495 -7.73164,-10.79161 -14.50753,-19.64161 -15.05753,-19.66666 -0.55,-0.0251 -1,8.95445 -1,19.95445 v 20 h -6 -6 z m 126.66666,30.8614 c 0,-3.66264 4.52054,-48.21214 6.07427,-59.8614 l 0.7558,-5.66666 h 7.8442 7.84421 l 4.6348,15 c 2.54915,8.25 5.37747,17.55 6.28515,20.66666 0.90769,3.11667 2.0604,5.66667 2.56157,5.66667 0.50118,0 1.65568,-2.55 2.56556,-5.66667 0.90988,-3.11666 3.76052,-12.41666 6.33475,-20.66666 l 4.68041,-15 h 7.87631 c 4.33197,0 7.91331,0.45 7.95855,1 0.0452,0.55 1.7144,16 3.70929,34.33333 l 3.62705,33.33333 -6.52338,0.40812 c -3.58787,0.22448 -6.75442,0.17711 -7.03679,-0.1052 -0.28236,-0.28237 -1.45232,-9.45233 -2.59991,-20.37769 -1.1476,-10.92537 -2.2652,-20.04297 -2.48357,-20.26135 -0.35329,-0.35329 -3.46637,9.16491 -10.90313,33.33618 -2.30182,7.48145 -2.47504,7.66666 -7.17095,7.66666 h -4.81216 l -5.77179,-19.66666 c -6.1044,-20.79996 -7.98533,-25.67472 -8.10286,-21 -0.0369,1.46666 -0.9432,10.76666 -2.01404,20.66666 -1.07084,9.9 -1.95892,18.45 -1.9735,19 -0.0146,0.54995 -3.0265,0.99995 -6.69317,0.99995 -6.44271,0 -6.66667,-0.12787 -6.66667,-3.80527 z m 82.9775,-30.52806 0.35584,-34.33334 20.33333,-0.36806 20.33333,-0.36806 v 6.70139 6.7014 H 529.74607 517.0794 v 7.33333 7.33334 h 9.33333 9.33334 v 6 6 h -9.33334 -9.33333 v 8 8 h 12.66667 12.66666 v 6.66666 6.66667 h -20.68917 -20.68917 z m 59.68917,-25.66667 c 0,-7.64444 -0.14815,-8 -3.33333,-8 -1.83334,0 -3.33334,-0.6 -3.33334,-1.33333 0,-0.74075 3.55556,-1.33334 8,-1.33334 4.44444,0 8,0.59259 8,1.33334 0,0.73333 -1.5,1.33333 -3.33333,1.33333 -3.18519,0 -3.33333,0.35556 -3.33333,8 0,4.44444 -0.59259,8 -1.33334,8 -0.74074,0 -1.33333,-3.55556 -1.33333,-8 z m 12,-1.33333 c 0,-11.31759 2.21996,-12.3978 6.16536,-3 l 2.65888,6.33333 2.03169,-6 c 1.16031,-3.4266 2.9851,-6.18489 4.25456,-6.43109 1.90603,-0.36967 2.22284,0.91308 2.22284,9 0,11.2747 -2.36329,12.6962 -2.93346,1.76442 l -0.39987,-7.66666 -1.87772,5.66666 c -2.31592,6.98911 -4.46879,7.18999 -7.14511,0.66667 l -2.05136,-5 -0.1296,7 c -0.19692,10.63968 -2.79621,8.47068 -2.79621,-2.33333 z M 376.41273,355.47717 c -24.64934,-5.67082 -46.39577,-18.37736 -67.39425,-39.37878 -29.11835,-29.12241 -44.68703,-67.0504 -40.03348,-97.52845 6.83707,-44.77889 56.92592,-79.94683 123.27097,-86.54994 40.18204,-3.99919 74.33943,7.70249 80.94971,27.73185 0.86656,2.62569 1.25891,8.56728 0.89843,13.60545 -0.8511,11.89501 -5.63787,20.63735 -18.08352,33.02685 -9.21287,9.17131 -17.1301,14.74223 -61.08911,42.98507 -34.64301,22.25748 -41.22257,36.63893 -24.35751,53.24007 8.45216,8.31989 16.07666,12.09326 24.43568,12.09326 12.66531,0 19.37815,-7.62509 20.42236,-23.1977 0.71444,-10.65442 2.73476,-13.89327 11.45542,-18.3646 6.3998,-3.28136 20.7081,-6.38632 29.5253,-6.40711 15.1374,-0.0357 24.66667,6.07059 24.66667,15.8062 0,12.87567 -10.44372,32.96037 -24.66667,47.4374 -10.39869,10.58445 -21.13897,17.64707 -34.8408,22.91069 -11.25064,4.32199 -32.36617,5.5329 -45.1592,2.58974 z M 264.98089,152.26002 c -11.19521,-7.09979 -18.42486,-18.52172 -19.5454,-30.87927 -0.7894,-8.70557 1.23299,-13.74583 7.69832,-19.18604 2.97223,-2.500965 5.67278,-3.492155 9.51456,-3.492155 11.21768,0 19.73423,15.077355 20.71143,36.666665 0.46923,10.36676 0.1722,12.58979 -2.18236,16.33333 -3.48324,5.53807 -8.09279,5.69672 -16.19655,0.55747 z m 47.37502,-33.3747 c -9.9898,-6.09197 -17.95739,-20.738375 -18.9684,-34.868635 -0.79592,-11.12411 1.15008,-17.31015 7.08453,-22.52067 11.30029,-9.92179 21.82723,-8.05427 28.24311,5.01046 3.3608,6.84362 3.69758,8.8653 3.69758,22.19608 0,15.952925 -1.53058,22.319625 -6.89977,28.700535 -3.84776,4.57281 -7.42768,4.97611 -13.15705,1.48223 z m 124.83204,-7.57666 c -6.51396,-5.88496 -9.44188,-14.046115 -9.44188,-26.317825 0,-23.29446 11.9759,-46.30335 30.86462,-59.29913 19.14112,-13.16944 52.40339,-13.918757 61.33062,-1.38162 9.24624,12.98514 -0.84436,39.80675 -24.16059,64.2207 -17.50996,18.334325 -33.08463,27.505095 -46.71179,27.505095 -5.74174,0 -7.36216,-0.64473 -11.88098,-4.72722 z M 367.05988,98.367245 c -7.36208,-7.36207 -11.40235,-19.68236 -11.47203,-34.9825 -0.0579,-12.69267 2.49383,-20.80272 8.54826,-27.16954 5.40405,-5.68289 11.1929,-8.17931 18.96668,-8.17931 11.91226,0 17.63344,6.40504 18.9065,21.16641 1.87602,21.75258 -13.70018,54.833575 -25.8184,54.833575 -2.29578,0 -5.3723,-1.90993 -9.13101,-5.668635 z"
       id="path845" />
  </g>
</svg>
